<svg width="30" height="30" viewBox="0 0 30 30" fill="none" xmlns="http://www.w3.org/2000/svg">
<path fill-rule="evenodd" clip-rule="evenodd" d="M8 0C3.58172 0 0 3.58172 0 8V22C0 26.4183 3.58172 30 8 30H22C26.4183 30 30 26.4183 30 22V8C30 3.58172 26.4183 0 22 0H8ZM21.9421 8.21224L20.9607 7.82086L15.8895 13.239L12.1138 8.17283L9.46634 8.15957L7.6331 8.15038L8.72828 9.62056L13.4151 15.9121L7.51245 22.2202L8.50901 22.5722L14.0115 16.7128L17.9964 22.0622H20.6384H22.4651L21.3736 20.5975L16.4775 14.028L21.9421 8.21224ZM10.5615 9.62975L18.7317 20.5975H19.5469L11.376 9.63383L10.5615 9.62975Z" fill="#4C6953"/>
</svg>
